<?xml version="1.0" encoding="utf-8"?>
<!-- Incognito icon by Arthur Shlain from Usefulicons.com -->
<svg xmlns="http://www.w3.org/2000/svg" xmlns:xlink="http://www.w3.org/1999/xlink" xml:space="preserve" version="1.1" x="0px" y="0px" viewBox="0 0 100 100" width="400px" height="400px"><path d="M70,55C64.547,55,59.788,57.919,57.162,62.271C55.132,60.845,52.664,60,50,60S44.868,60.845,42.838,62.271C40.212,57.919,35.453,55,30,55C21.716,55,15,61.716,15,70C15,78.284,21.716,85,30,85S45,78.284,45,70C45,69.033,44.9,68.091,44.725,67.175C46.081,65.832,47.945,65,50,65S53.919,65.832,55.275,67.175C55.1,68.091,55,69.033,55,70C55,78.284,61.716,85,70,85S85,78.284,85,70C85,61.716,78.284,55,70,55Z" stroke="none"></path><path d="M75,35L70,15L30,15L25,35L10,40L10,45L90,45L90,40Z" stroke="none"></path></svg>